<?xml version="1.0" encoding="utf-8"?>
<!-- Generator: Adobe Illustrator 19.1.0, SVG Export Plug-In . SVG Version: 6.00 Build 0)  -->
<svg version="1.1" id="Layer_1" xmlns="http://www.w3.org/2000/svg" xmlns:xlink="http://www.w3.org/1999/xlink" x="0px" y="0px"
	 viewBox="-367 269 64 64" style="enable-background:new -367 269 64 64;" xml:space="preserve">
<style type="text/css">
	.st0{fill:#FFFFFF;}
</style>
<path class="st0" d="M-314.5,270c-2.3,0-4.5,1.9-4.5,4.2v8.8v3.2c-0.6-0.7-1.2-1.4-2-1.9V283v-2.5v-8.9c0-1.6-1.7-2.6-3.4-2.6h-26
	c-1.6,0-2.6,1-2.6,2.6v8.9v2.5h-2.8c-2.3,0-4.2,2.2-4.2,4.5s1.9,4.5,4.2,4.5h2.8v1h-2.8c-2.3,0-4.2,2.2-4.2,4.5s1.9,4.5,4.2,4.5h2.8
	v1h-2.8c-2.3,0-4.2,2.2-4.2,4.5s1.9,4.5,4.2,4.5h2.8v1h-2.8c-2.3,0-4.2,2.2-4.2,4.5s1.9,4.5,4.2,4.5h2.8v7.7c0,1.7,1,3.3,2.6,3.3h26
	c1.7,0,3.4-1.6,3.4-3.3V323h2h1.2h0.8c3.9-0.5,7-4.1,7-8.1V311v-20.2v-16.6C-310,271.9-312.2,270-314.5,270z M-322,320.5L-322,320.5
	c0,1.2-1.3,2.5-2.4,2.5h-26c-1.1,0-1.6-1.3-1.6-2.4v-40.1c0-1.1,0.5-1.5,1.6-1.5h26c1.1,0,2.4,0.4,2.4,1.5v2.5V320.5z M-350.4,270
	h26c1.1,0,2.4,0.5,2.4,1.6v7.1c-0.6-0.5-1.5-0.7-2.4-0.7h-26c-0.6,0-1.2,0.1-1.6,0.4v-6.8C-352,270.5-351.5,270-350.4,270z
	 M-322,329.7c0,1.1-1.3,2.3-2.4,2.3h-26c-1.1,0-1.6-1.2-1.6-2.3v-6.4c0.4,0.4,1,0.7,1.6,0.7h26c0.9,0,1.8-0.5,2.4-1.1v0.1V329.7z"/>
<g>
	<g>
		<rect x="-347" y="288" class="st0" width="13" height="1"/>
	</g>
	<g>
		<path class="st0" d="M-326,297h-21v-5h21V297z M-346,296h19v-3h-19V296z"/>
	</g>
</g>
<g>
	<g>
		<rect x="-347" y="301" class="st0" width="13" height="1"/>
	</g>
	<g>
		<path class="st0" d="M-326,310h-21v-5h21V310z M-346,309h19v-3h-19V309z"/>
	</g>
</g>
</svg>
