<?xml version="1.0" encoding="utf-8"?>
<!-- Generator: Adobe Illustrator 19.1.0, SVG Export Plug-In . SVG Version: 6.00 Build 0)  -->
<svg version="1.1" id="Layer_1" xmlns="http://www.w3.org/2000/svg" xmlns:xlink="http://www.w3.org/1999/xlink" x="0px" y="0px"
	 viewBox="0 0 280 100" style="enable-background:new 0 0 280 100;" xml:space="preserve">
<style type="text/css">
	.st0{fill:#E26F44;}
</style>
<g>
	<path class="st0" d="M114.3,50c0,10.2,5.9,19,14.5,23.2l-12.3-33.6C115.1,42.7,114.3,46.3,114.3,50z"/>
	<path class="st0" d="M157.4,48.7c0-3.2-1.1-5.4-2.1-7.1c-1.3-2.1-2.5-3.9-2.5-6c0-2.4,1.8-4.6,4.3-4.6c0.1,0,0.2,0,0.3,0
		c-4.6-4.2-10.7-6.8-17.4-6.8c-9,0-16.9,4.6-21.5,11.6c0.6,0,1.2,0,1.7,0c2.7,0,6.9-0.3,6.9-0.3c1.4-0.1,1.6,2,0.2,2.1
		c0,0-1.4,0.2-2.9,0.2l9.4,27.9l5.6-16.9l-4-11c-1.4-0.1-2.7-0.2-2.7-0.2c-1.4-0.1-1.2-2.2,0.2-2.1c0,0,4.2,0.3,6.8,0.3
		c2.7,0,6.9-0.3,6.9-0.3c1.4-0.1,1.6,2,0.2,2.1c0,0-1.4,0.2-2.9,0.2l9.3,27.7l2.6-8.6C156.5,53.5,157.4,50.9,157.4,48.7z"/>
	<path class="st0" d="M140.5,52.3l-7.7,22.4c2.3,0.7,4.7,1,7.3,1c3,0,5.9-0.5,8.5-1.5c-0.1-0.1-0.1-0.2-0.2-0.4L140.5,52.3z"/>
	<path class="st0" d="M162.6,37.7c0.1,0.8,0.2,1.7,0.2,2.6c0,2.6-0.5,5.5-2,9.2l-7.9,22.7c7.7-4.5,12.8-12.8,12.8-22.2
		C165.7,45.5,164.6,41.3,162.6,37.7z"/>
	<path class="st0" d="M140,20c-16.5,0-30,13.5-30,30c0,16.5,13.5,30,30,30c16.5,0,30-13.5,30-30C170,33.5,156.5,20,140,20z
		 M140,78.6c-15.8,0-28.6-12.8-28.6-28.6c0-15.8,12.8-28.6,28.6-28.6c15.8,0,28.6,12.8,28.6,28.6C168.6,65.8,155.8,78.6,140,78.6z"
		/>
</g>
</svg>
