<?xml version="1.0" encoding="utf-8"?>
<!-- Generator: Adobe Illustrator 19.1.0, SVG Export Plug-In . SVG Version: 6.00 Build 0)  -->
<svg version="1.1" id="Layer_1" xmlns="http://www.w3.org/2000/svg" xmlns:xlink="http://www.w3.org/1999/xlink" x="0px" y="0px"
	 viewBox="-367 269 64 64" style="enable-background:new -367 269 64 64;" xml:space="preserve">
<style type="text/css">
	.st0{fill:#FFFFFF;}
	.st1{fill:none;stroke:#FFFFFF;stroke-miterlimit:10;}
</style>
<rect x="-349" y="288" class="st0" width="13" height="1"/>
<rect x="-353" y="291" class="st0" width="21" height="1"/>
<rect x="-353" y="294" class="st0" width="21" height="1"/>
<rect x="-347.5" y="298.5" class="st1" width="10" height="3"/>
<rect x="-335" y="315" class="st0" width="13" height="1"/>
<rect x="-339" y="318" class="st0" width="21" height="1"/>
<rect x="-339" y="321" class="st0" width="21" height="1"/>
<rect x="-333.5" y="324.5" class="st1" width="10" height="2"/>
<path class="st0" d="M-325.9,270h-32.7c-1.4,0-3.4,0.8-3.4,2.3v5.5v36.6v6.6c0,1.5,2,3,3.4,3h10.6v-1h-10.6c-0.9,0-2.4-1.1-2.4-2
	v-5.4c0.6,0.3,1.3,0.4,1.9,0.4h11.1v-1.1h-11.1c-0.6,0.1-1.9,0.1-1.9-0.4v-36.7c0-0.5,1.3-0.8,1.9-0.8h33.1h0.4
	c0.5,0,0.6,0.3,0.6,0.8V311h1v-33.2v-5.5C-324,270.8-324.5,270-325.9,270z M-325.4,276h-33.7c-0.6,0-1.3,0.2-1.9,0.5v-4.2
	c0-0.9,1.5-1.3,2.4-1.3h32.4c0.9,0,1.2,0.4,1.2,1.3v3.7C-325.1,276-325.3,276-325.4,276z"/>
<path class="st0" d="M-311.8,311h-5.1h-0.2h-22.2h-5.6c-1.7,0-3.1,1-3.1,2.6v14c0,1.7,1.5,3.4,3.1,3.4h5.6h22.4h5.4
	c1.7,0,2.4-1.7,2.4-3.4v-14C-309.1,311.9-310.1,311-311.8,311z M-344.9,330c-1.1,0-2.1-1.3-2.1-2.4v-14c0-1.1,1-1.6,2.1-1.6h2.7
	c-0.5,0.4-0.8,1-0.8,1.6v14c0,0.9,0.5,1.8,1.3,2.4H-344.9z M-339.3,330c-1.1,0-2.7-1.3-2.7-2.4v-14c0-1.1,1.6-1.6,2.7-1.6h21.9
	c1.1,0,2.4,0.5,2.4,1.6v14c0,1.1-0.8,2.4-1.9,2.4H-339.3z M-310,327.6c0,1.1-0.3,2.4-1.4,2.4h-3.5c0.5-0.6,0.9-1.5,0.9-2.4v-14
	c0-0.7-0.2-1.2-0.6-1.6h2.7c1.1,0,1.9,0.5,1.9,1.6V327.6z"/>
</svg>
