<?xml version="1.0" encoding="utf-8"?>
<!-- Generator: Adobe Illustrator 19.1.0, SVG Export Plug-In . SVG Version: 6.00 Build 0)  -->
<svg version="1.1" id="Layer_1" xmlns="http://www.w3.org/2000/svg" xmlns:xlink="http://www.w3.org/1999/xlink" x="0px" y="0px"
	 viewBox="-367 269 64 64" style="enable-background:new -367 269 64 64;" xml:space="preserve">
<style type="text/css">
	.st0{fill:#FFFFFF;}
</style>
<g>
	<g>
		<g>
			<polygon class="st0" points="-344.8,302.6 -352.1,295.2 -344.8,287.9 -344.1,288.6 -350.7,295.2 -344.1,301.9 			"/>
		</g>
		<g>
			<polygon class="st0" points="-326.1,302.6 -326.8,301.9 -320.1,295.2 -326.8,288.6 -326.1,287.9 -318.7,295.2 			"/>
		</g>
	</g>
	<path class="st0" d="M-307.7,274.5h-0.1h-55.1c-1.7,0-2.6,1-2.6,2.6v36c0,1.7,1,3.4,2.6,3.4h24.4v5h-5.6c-1.1,0-2.4,0.5-2.4,1.6v2
		c0,1.1,1.3,2.4,2.4,2.4h18.1c1.1,0,2.5-1.3,2.5-2.4v-2c0-1.1-1.4-1.6-2.5-1.6h-6.5v-5h24.7c1.7,0,3.3-1.7,3.3-3.4v-36
		C-304.6,275.5-306.1,274.5-307.7,274.5z M-326.1,322.5c0.6,0,1.5,0.1,1.5,0.6v2c0,0.6-0.9,1.4-1.5,1.4h-18.1
		c-0.6,0-1.4-0.8-1.4-1.4v-2c0-0.6,0.9-0.6,1.4-0.6h5.6h6H-326.1z M-333.6,321.5h-4v-5h4V321.5z M-305.6,313.1
		c0,1.1-1.2,2.4-2.3,2.4H-363c-1.1,0-1.6-1.3-1.6-2.4v-36c0-1.1,0.5-1.6,1.6-1.6h55.4l0,0c1.1,0,2,0.5,2,1.6V313.1z"/>
	<path class="st0" d="M-311.1,280.5c0.6,0,1.5,0.1,1.5,0.6v28c0,0.6-0.9,1.4-1.5,1.4h-48.1c-0.6,0-1.4-0.8-1.4-1.4v-28
		c0-0.6,0.9-0.6,1.4-0.6h48.6 M-311.1,279.5h-48.1c-1.1,0-2.4,0.5-2.4,1.6v28c0,1.1,1.3,2.4,2.4,2.4h48.1c1.1,0,2.5-1.3,2.5-2.4v-28
		C-308.6,280-310,279.5-311.1,279.5L-311.1,279.5z"/>
</g>
</svg>
