<?xml version="1.0" encoding="utf-8"?>
<!-- Generator: Adobe Illustrator 19.1.0, SVG Export Plug-In . SVG Version: 6.00 Build 0)  -->
<svg version="1.1" id="Layer_1" xmlns="http://www.w3.org/2000/svg" xmlns:xlink="http://www.w3.org/1999/xlink" x="0px" y="0px"
	 viewBox="0 0 280 100" style="enable-background:new 0 0 280 100;" xml:space="preserve">
<style type="text/css">
	.st0{fill:#E26F44;}
</style>
<g>
	<path class="st0" d="M130.4,31h-30.1C99,31,98,32,98,33.3v5.3v33.2v6.1c0,1.3,1,2.1,2.3,2.1h30.1c1.3,0,2.6-0.7,2.6-2.1v-6.1V38.6
		v-5.3C133,32,131.8,31,130.4,31z M100.3,32H130h0.4c0.8,0,1.6,0.5,1.6,1.3v3.9c-0.4-0.2-0.8-0.2-1.2-0.2H100c-0.4,0-0.7,0.1-1,0.2
		v-3.8C99,32.5,99.5,32,100.3,32z M132,71.8c0,0.6-0.7,1.2-1.2,1.2H100c-0.6,0-1-0.6-1-1.2V38.6c0-0.6,0.4-0.6,1-0.6h30.8
		c0.6,0,1.2,0,1.2,0.6V71.8z M130.4,79h-30.1c-0.8,0-1.3-0.3-1.3-1.1v-4.2c0.3,0.2,0.6,0.3,1,0.3h30.8c0.4,0,0.9-0.2,1.2-0.4v4.4
		C132,78.7,131.2,79,130.4,79z"/>
	<rect x="109" y="47" class="st0" width="13" height="1"/>
	<rect x="105" y="50" class="st0" width="21" height="1"/>
	<rect x="105" y="53" class="st0" width="21" height="1"/>
	<g>
		<path class="st0" d="M121,61h-11v-4h11V61z M111,60h9v-2h-9V60z"/>
	</g>
	<path class="st0" d="M86.6,40h-15c-1.3,0-2.6,1-2.6,2.3v5.3v24.2v6.1c0,1.3,1.3,2.1,2.6,2.1h15.1c1.3,0,2.2-0.7,2.2-2.1v-6.1V47.6
		v-5.3C89,41,88,40,86.6,40z M71.6,41H86h0.4c0.8,0,1.6,0.5,1.6,1.3v3.9c-0.3-0.1-0.7-0.2-1.1-0.2H71.3c-0.4,0-0.9,0.1-1.3,0.2v-3.9
		C70,41.5,70.8,41,71.6,41z M88,71.8c0,0.6-0.3,1.2-0.9,1.2H71.3c-0.6,0-1.3-0.6-1.3-1.2V47.6c0-0.6,0.7-0.6,1.3-0.6h15.5
		c0.6,0,1.2,0,1.2,0.6V71.8z M86.8,79H71.6c-0.8,0-1.6-0.3-1.6-1.1v-4.4c0.4,0.3,0.8,0.5,1.3,0.5h15.8c0.3,0,0.6-0.1,0.9-0.3v4.2
		C88,78.7,87.6,79,86.8,79z"/>
	<rect x="74" y="53" class="st0" width="10" height="1"/>
	<rect x="72" y="56" class="st0" width="14" height="1"/>
	<rect x="72" y="59" class="st0" width="14" height="1"/>
	<g>
		<path class="st0" d="M84,67H74v-4h10V67z M75,66h8v-2h-8V66z"/>
	</g>
	<g>
		<path class="st0" d="M208.3,20h-0.2H144c-1.3,0-2,1-2,2.3v42.6c0,1.3,0.6,2.1,2,2.1h29v8h-7c-1.3,0-2,1-2,2.3v1.6
			c0,1.3,0.6,2.1,2,2.1h20.1c1.3,0,2.9-0.7,2.9-2.1v-1.6c0-1.3-1.4-2.3-2.7-2.3h-0.2H179v-8h29.1c1.3,0,2.9-0.7,2.9-2.1V22.3
			C211,21,209.6,20,208.3,20z M186,76h0.4c0.8,0,1.6,0.5,1.6,1.3v1.6c0,0.8-1.1,1.1-1.9,1.1H166c-0.8,0-1-0.3-1-1.1v-1.6
			c0-0.8,0.2-1.3,1-1.3H186z M178,75h-4v-8h4V75z M210,64.9c0,0.8-1.1,1.1-1.9,1.1H179h-1h-4h-1h-29c-0.8,0-1-0.3-1-1.1V22.3
			c0-0.8,0.2-1.3,1-1.3h64h0.4c0.8,0,1.6,0.5,1.6,1.3V64.9z"/>
		<path class="st0" d="M203.3,25h-0.2H149c-1.3,0-2,1-2,2.3v32.6c0,1.3,0.6,2.1,2,2.1h54.1c1.3,0,2.9-0.7,2.9-2.1V27.3
			C206,26,204.6,25,203.3,25z M205,59.9c0,0.8-1.1,1.1-1.9,1.1H149c-0.8,0-1-0.3-1-1.1V27.3c0-0.8,0.2-1.3,1-1.3h54h0.4
			c0.8,0,1.6,0.5,1.6,1.3V59.9z"/>
	</g>
	<rect x="168" y="38" class="st0" width="16" height="1"/>
	<rect x="162" y="41" class="st0" width="28" height="1"/>
	<rect x="162" y="44" class="st0" width="28" height="1"/>
	<g>
		<path class="st0" d="M183,52h-14v-4h14V52z M170,51h12v-2h-12V51z"/>
	</g>
</g>
</svg>
