<?xml version="1.0" encoding="utf-8"?>
<!-- Generator: Adobe Illustrator 19.1.0, SVG Export Plug-In . SVG Version: 6.00 Build 0)  -->
<svg version="1.1" id="Layer_1" xmlns="http://www.w3.org/2000/svg" xmlns:xlink="http://www.w3.org/1999/xlink" x="0px" y="0px"
	 viewBox="0 0 280 100" style="enable-background:new 0 0 280 100;" xml:space="preserve">
<style type="text/css">
	.st0{fill:#E26F44;}
</style>
<g>
	<g>
		<path class="st0" d="M163.1,42.2c0-2.2-0.6-4.3-1.7-6.2h0.2v-4.8h-4.8v0.3c-4.7-2.6-10.7-2-14.7,2h-4.6c-3.9-3.9-9.8-4.6-14.5-2.1
			v-0.1h-4.8V36c-1.1,1.9-1.7,4-1.7,6.2c0,2.1,0.5,4.1,1.5,5.9h-0.4v4.8h4.5l15.2,15.2V71h4.8v-2.8l15.2-15.2h4.4v-4.8h-0.3
			C162.6,46.3,163.1,44.3,163.1,42.2z M157.1,48.1v4.2l-14.8,14.8v-0.9h-4.8v0.9l-14.9-14.9v-4.1H119c-1-1.8-1.6-3.8-1.6-5.9
			c0-2.2,0.6-4.3,1.8-6.2h3.9v-3.8c1.8-1,3.8-1.6,5.8-1.6c3,0,5.9,1.1,8.2,3.4l0.4,0.4v3.9h4.8v-3.9l0.4-0.4
			c3.9-3.9,9.8-4.4,14.2-1.7V36h3.7c1.2,1.8,1.8,3.9,1.8,6.2c0,2.1-0.6,4.1-1.6,5.9H157.1z"/>
	</g>
</g>
</svg>
