<?xml version="1.0" encoding="utf-8"?>
<!-- Generator: Adobe Illustrator 19.1.0, SVG Export Plug-In . SVG Version: 6.00 Build 0)  -->
<svg version="1.1" id="Layer_1" xmlns="http://www.w3.org/2000/svg" xmlns:xlink="http://www.w3.org/1999/xlink" x="0px" y="0px"
	 viewBox="0 0 280 100" style="enable-background:new 0 0 280 100;" xml:space="preserve">
<style type="text/css">
	.st0{fill:#E26F44;}
</style>
<g>
	<path class="st0" d="M169.9,35.7c1.4,0,2.5,1.1,2.5,2.5s-1.1,2.5-2.5,2.5h-4.3c-1.4,0-2.5-1.1-2.5-2.5s1.1-2.5,2.5-2.5H169.9
		 M169.9,34.5h-4.3c-2.1,0-3.7,1.7-3.7,3.8s1.7,3.8,3.7,3.8h4.3c2.1,0,3.7-1.7,3.7-3.8S171.9,34.5,169.9,34.5L169.9,34.5z"/>
</g>
<g>
	<path class="st0" d="M175.9,30h-21.7l0-0.4c0-1.9-1.9-3.6-4.3-3.6h-11.5c-2.4,0-4.3,1.7-4.3,3.5L134,30h-19v-2h-8v2h-2.9
		c-1.2,0-2.1,1.1-2.1,2.2V75h76V32.2C178,31.1,177.1,30,175.9,30z M135.1,29.6c0-1.4,1.5-2.6,3.3-2.6h11.5c1.8,0,3.3,1.3,3.3,2.7
		l2.3,13.1c-3-3-7.1-4.8-11.7-4.8c-4.2,0-8,1.6-10.9,4.1L135.1,29.6z M143.8,39.3c8.5,0,15.5,7.1,15.5,15.7s-7,15.7-15.5,15.7
		s-15.5-7.1-15.5-15.7S135.2,39.3,143.8,39.3z M103,74V32.2c0-0.6,0.5-1.2,1.1-1.2h2.9h8h3v43H103z M177,74h-58V31h14.8l-2.2,12.3
		c-2.9,3.1-4.7,7.2-4.7,11.7c0,9.4,7.5,17,16.8,17c9.2,0,16.8-7.6,16.8-17c0-4.2-1.5-8-4-11c0-0.1,0-0.3,0-0.4L154.3,31h21.6
		c0.6,0,1.1,0.6,1.1,1.2V74z"/>
	<path class="st0" d="M143.8,67.9c7,0,12.8-5.8,12.8-13s-5.7-13-12.8-13c-7,0-12.8,5.8-12.8,13S136.7,67.9,143.8,67.9z M143.8,46.2
		c4.8,0,8.7,3.9,8.7,8.8s-3.9,8.8-8.7,8.8c-4.8,0-8.7-3.9-8.7-8.8S139,46.2,143.8,46.2z"/>
</g>
</svg>
