<?xml version="1.0" encoding="utf-8"?>
<!-- Generator: Adobe Illustrator 19.1.0, SVG Export Plug-In . SVG Version: 6.00 Build 0)  -->
<svg version="1.1" id="Layer_1" xmlns="http://www.w3.org/2000/svg" xmlns:xlink="http://www.w3.org/1999/xlink" x="0px" y="0px"
	 viewBox="0 0 89.3 90" style="enable-background:new 0 0 89.3 90;" xml:space="preserve">
<style type="text/css">
	.st0{fill:#FFFFFF;}
</style>
<g>
	<path class="st0" d="M44.3,0c-3.5,0-7.2,0.4-10.2,1.2v73.1C22.1,70,13.6,58.5,13.6,45c0,0,0.4-0.1,0.4-0.1H0c0,0,0,0.1,0,0.1
		c0,24.9,19.8,45,44.6,45c1.3,0,2.4-0.1,3.4-0.2V0.2C47.1,0.1,45.6,0,44.3,0z"/>
	<path class="st0" d="M57.1,1.9v14.9c11,4.9,18.2,15.7,18.2,28.2s-7.2,23.3-18.2,28.2v14.9c18-5.5,32.2-22.7,32.2-43.1
		C89.3,24.6,75.1,7.4,57.1,1.9z"/>
</g>
</svg>
